<svg xmlns="http://www.w3.org/2000/svg" xmlns:xlink="http://www.w3.org/1999/xlink" width="800" zoomAndPan="magnify" viewBox="0 0 600 449.999984" height="600" preserveAspectRatio="xMidYMid meet" version="1.0"><defs><g/></defs><g fill="#ff66c4" fill-opacity="1"><g transform="translate(20.508358, 197.550285)"><g><path d="M 10.875 0 L 10.875 -105.671875 L 29.796875 -105.671875 L 29.796875 -47.03125 L 31.640625 -47.03125 L 53.453125 -75.390625 L 72.65625 -75.390625 L 72.65625 -73.8125 L 47.03125 -40.734375 L 75.53125 -1.703125 L 75.53125 0 L 55.5625 0 L 31.640625 -31.78125 L 29.796875 -31.78125 L 29.796875 0 Z M 10.875 0 "/></g></g></g><g fill="#ff66c4" fill-opacity="1"><g transform="translate(96.171629, 197.550285)"><g><path d="M 20.296875 -84.421875 C 16.878906 -84.421875 14.097656 -85.457031 11.953125 -87.53125 C 9.816406 -89.601562 8.75 -92.28125 8.75 -95.5625 C 8.75 -98.789062 9.816406 -101.441406 11.953125 -103.515625 C 14.097656 -105.585938 16.878906 -106.625 20.296875 -106.625 C 22.578125 -106.625 24.601562 -106.144531 26.375 -105.1875 C 28.15625 -104.238281 29.535156 -102.929688 30.515625 -101.265625 C 31.492188 -99.597656 31.984375 -97.695312 31.984375 -95.5625 C 31.984375 -93.414062 31.492188 -91.5 30.515625 -89.8125 C 29.535156 -88.125 28.15625 -86.800781 26.375 -85.84375 C 24.601562 -84.894531 22.578125 -84.421875 20.296875 -84.421875 Z M 10.875 0 L 10.875 -75.390625 L 29.796875 -75.390625 L 29.796875 0 Z M 10.875 0 "/></g></g></g><g fill="#ff66c4" fill-opacity="1"><g transform="translate(136.77143, 197.550285)"><g><path d="M 31.3125 1.4375 C 24.519531 1.4375 19.332031 -0.394531 15.75 -4.0625 C 12.175781 -7.726562 10.390625 -13.300781 10.390625 -20.78125 L 10.390625 -105.671875 L 29.328125 -105.671875 L 29.328125 -21.53125 C 29.328125 -16.925781 31.238281 -14.625 35.0625 -14.625 C 36.15625 -14.625 37.316406 -14.804688 38.546875 -15.171875 L 39.5 -14.90625 L 41.21875 -0.34375 C 40.164062 0.207031 38.773438 0.640625 37.046875 0.953125 C 35.316406 1.273438 33.40625 1.4375 31.3125 1.4375 Z M 31.3125 1.4375 "/></g></g></g><g fill="#ff66c4" fill-opacity="1"><g transform="translate(180.105224, 197.550285)"><g><path d="M 43.8125 1.4375 C 36.425781 1.4375 29.941406 -0.078125 24.359375 -3.109375 C 18.785156 -6.140625 14.457031 -10.582031 11.375 -16.4375 C 8.300781 -22.289062 6.765625 -29.363281 6.765625 -37.65625 C 6.765625 -45.957031 8.300781 -53.046875 11.375 -58.921875 C 14.457031 -64.796875 18.785156 -69.25 24.359375 -72.28125 C 29.941406 -75.3125 36.425781 -76.828125 43.8125 -76.828125 C 51.195312 -76.828125 57.675781 -75.3125 63.25 -72.28125 C 68.832031 -69.25 73.171875 -64.796875 76.265625 -58.921875 C 79.367188 -53.046875 80.921875 -45.957031 80.921875 -37.65625 C 80.921875 -29.363281 79.367188 -22.289062 76.265625 -16.4375 C 73.171875 -10.582031 68.832031 -6.140625 63.25 -3.109375 C 57.675781 -0.078125 51.195312 1.4375 43.8125 1.4375 Z M 43.8125 -14.625 C 55.519531 -14.625 61.375 -22.300781 61.375 -37.65625 C 61.375 -45.632812 59.867188 -51.476562 56.859375 -55.1875 C 53.859375 -58.90625 49.507812 -60.765625 43.8125 -60.765625 C 32.101562 -60.765625 26.25 -53.0625 26.25 -37.65625 C 26.25 -22.300781 32.101562 -14.625 43.8125 -14.625 Z M 43.8125 -14.625 "/></g></g></g><g fill="#ff66c4" fill-opacity="1"><g transform="translate(267.729699, 197.550285)"><g><path d="M 52.703125 1.4375 C 43.085938 1.4375 35.929688 -2.160156 31.234375 -9.359375 L 29.796875 -9.09375 L 29.796875 0 L 10.875 0 L 10.875 -105.671875 L 29.796875 -105.671875 L 29.796875 -66.5 L 31.234375 -66.234375 C 33.828125 -69.828125 36.890625 -72.488281 40.421875 -74.21875 C 43.960938 -75.957031 48.191406 -76.828125 53.109375 -76.828125 C 59.210938 -76.828125 64.539062 -75.390625 69.09375 -72.515625 C 73.65625 -69.648438 77.210938 -65.289062 79.765625 -59.4375 C 82.316406 -53.582031 83.59375 -46.320312 83.59375 -37.65625 C 83.59375 -29.09375 82.269531 -21.882812 79.625 -16.03125 C 76.988281 -10.175781 73.34375 -5.800781 68.6875 -2.90625 C 64.039062 -0.0078125 58.710938 1.4375 52.703125 1.4375 Z M 46.953125 -14.625 C 52.515625 -14.625 56.753906 -16.476562 59.671875 -20.1875 C 62.585938 -23.90625 64.046875 -29.726562 64.046875 -37.65625 C 64.046875 -45.632812 62.585938 -51.476562 59.671875 -55.1875 C 56.753906 -58.90625 52.515625 -60.765625 46.953125 -60.765625 C 41.617188 -60.765625 37.390625 -58.847656 34.265625 -55.015625 C 31.148438 -51.191406 29.59375 -45.40625 29.59375 -37.65625 C 29.59375 -29.914062 31.148438 -24.140625 34.265625 -20.328125 C 37.390625 -16.523438 41.617188 -14.625 46.953125 -14.625 Z M 46.953125 -14.625 "/></g></g></g><g fill="#ff66c4" fill-opacity="1"><g transform="translate(358.019823, 197.550285)"><g><path d="M 16.671875 31.984375 C 13.441406 31.984375 10.515625 31.734375 7.890625 31.234375 C 5.273438 30.734375 3.144531 30.070312 1.5 29.25 L 4.515625 13.9375 L 5.734375 13.53125 C 6.878906 14.125 8.296875 14.601562 9.984375 14.96875 C 11.671875 15.332031 13.398438 15.515625 15.171875 15.515625 C 18.222656 15.515625 20.765625 15.113281 22.796875 14.3125 C 24.828125 13.519531 26.546875 12.203125 27.953125 10.359375 C 29.367188 8.515625 30.625 5.953125 31.71875 2.671875 L 1.640625 -75.390625 L 21.46875 -75.390625 L 40.1875 -22.96875 L 41.828125 -22.96875 L 60.078125 -75.390625 L 79.359375 -75.390625 L 49.078125 4.71875 C 46.660156 11.1875 44.003906 16.390625 41.109375 20.328125 C 38.210938 24.273438 34.796875 27.203125 30.859375 29.109375 C 26.921875 31.023438 22.191406 31.984375 16.671875 31.984375 Z M 16.671875 31.984375 "/></g></g></g><g fill="#ff66c4" fill-opacity="1"><g transform="translate(438.946025, 197.550285)"><g><path d="M 52.015625 -17.96875 L 56.9375 -3.96875 C 54.882812 -2.28125 52.304688 -0.957031 49.203125 0 C 46.109375 0.957031 42.601562 1.4375 38.6875 1.4375 C 30.53125 1.4375 24.332031 -0.78125 20.09375 -5.21875 C 15.851562 -9.664062 13.734375 -16.128906 13.734375 -24.609375 L 13.734375 -60.421875 L 2.25 -60.421875 L 2.25 -75.453125 L 13.734375 -75.453125 L 13.734375 -90.15625 L 32.671875 -93.234375 L 32.671875 -75.453125 L 54.0625 -75.453125 L 54.0625 -60.421875 L 32.671875 -60.421875 L 32.671875 -25.96875 C 32.671875 -22.238281 33.441406 -19.519531 34.984375 -17.8125 C 36.535156 -16.101562 38.796875 -15.25 41.765625 -15.25 C 45.140625 -15.25 48.078125 -16.15625 50.578125 -17.96875 Z M 52.015625 -17.96875 "/></g></g></g><g fill="#ff66c4" fill-opacity="1"><g transform="translate(497.521826, 197.550285)"><g><path d="M 74.5 -33.421875 L 26.046875 -33.421875 C 26.585938 -26.859375 28.453125 -22.082031 31.640625 -19.09375 C 34.835938 -16.113281 39.191406 -14.625 44.703125 -14.625 C 49.035156 -14.625 52.546875 -15.429688 55.234375 -17.046875 C 57.921875 -18.671875 60.082031 -21.125 61.71875 -24.40625 L 63.15625 -24.40625 L 75.734375 -16.34375 C 73.273438 -11.050781 69.5625 -6.765625 64.59375 -3.484375 C 59.625 -0.203125 52.992188 1.4375 44.703125 1.4375 C 36.910156 1.4375 30.175781 -0.0390625 24.5 -3 C 18.832031 -5.96875 14.457031 -10.378906 11.375 -16.234375 C 8.300781 -22.085938 6.765625 -29.226562 6.765625 -37.65625 C 6.765625 -46.226562 8.378906 -53.453125 11.609375 -59.328125 C 14.847656 -65.203125 19.222656 -69.585938 24.734375 -72.484375 C 30.253906 -75.378906 36.453125 -76.828125 43.328125 -76.828125 C 53.992188 -76.828125 62.160156 -74 67.828125 -68.34375 C 73.503906 -62.695312 76.34375 -54.40625 76.34375 -43.46875 C 76.34375 -39.507812 76.207031 -36.4375 75.9375 -34.25 Z M 58.234375 -45.65625 C 58.054688 -51.394531 56.722656 -55.570312 54.234375 -58.1875 C 51.753906 -60.8125 48.117188 -62.125 43.328125 -62.125 C 33.765625 -62.125 28.140625 -56.632812 26.453125 -45.65625 Z M 58.234375 -45.65625 "/></g></g></g><g fill="#c1ff72" fill-opacity="1"><g transform="translate(213.293503, 393.300269)"><g><path d="M 10.875 0 L 10.875 -105.671875 L 29.796875 -105.671875 L 29.796875 -47.03125 L 31.640625 -47.03125 L 53.453125 -75.390625 L 72.65625 -75.390625 L 72.65625 -73.8125 L 47.03125 -40.734375 L 75.53125 -1.703125 L 75.53125 0 L 55.5625 0 L 31.640625 -31.78125 L 29.796875 -31.78125 L 29.796875 0 Z M 10.875 0 "/></g></g></g><g fill="#c1ff72" fill-opacity="1"><g transform="translate(288.956774, 393.300269)"><g><path d="M 12.984375 0 L 12.984375 -99.9375 L 55.640625 -99.9375 C 61.785156 -99.9375 66.988281 -98.96875 71.25 -97.03125 C 75.507812 -95.09375 78.734375 -92.332031 80.921875 -88.75 C 83.109375 -85.175781 84.203125 -80.953125 84.203125 -76.078125 C 84.203125 -71.660156 83.128906 -67.765625 80.984375 -64.390625 C 78.847656 -61.015625 75.773438 -58.300781 71.765625 -56.25 L 71.765625 -54.8125 C 78.054688 -53.175781 82.910156 -50.191406 86.328125 -45.859375 C 89.742188 -41.535156 91.453125 -36.226562 91.453125 -29.9375 C 91.453125 -20.363281 88.566406 -12.976562 82.796875 -7.78125 C 77.035156 -2.59375 68.484375 0 57.140625 0 Z M 51.53125 -60.078125 C 60.738281 -60.078125 65.34375 -64.222656 65.34375 -72.515625 C 65.34375 -76.753906 64.203125 -79.910156 61.921875 -81.984375 C 59.648438 -84.054688 56.1875 -85.09375 51.53125 -85.09375 L 32.734375 -85.09375 L 32.734375 -60.078125 Z M 55.15625 -15.65625 C 66.050781 -15.65625 71.5 -20.597656 71.5 -30.484375 C 71.5 -40.421875 66.050781 -45.390625 55.15625 -45.390625 L 32.734375 -45.390625 L 32.734375 -15.65625 Z M 55.15625 -15.65625 "/></g></g></g></svg>