<svg xmlns="http://www.w3.org/2000/svg" xmlns:xlink="http://www.w3.org/1999/xlink" width="800" zoomAndPan="magnify" viewBox="0 0 600 449.999984" height="600" preserveAspectRatio="xMidYMid meet" version="1.0"><defs><g/></defs><g fill="#ffde59" fill-opacity="1"><g transform="translate(68.168511, 286.499978)"><g><path d="M 6.015625 0 L 6.015625 -18.671875 L 33.59375 -18.671875 L 33.59375 -89.765625 L 31.796875 -90.234375 C 27.890625 -88.359375 24.046875 -86.875 20.265625 -85.78125 C 16.492188 -84.6875 12.1875 -83.828125 7.34375 -83.203125 L 7.34375 -102.5 C 20 -105.15625 30.234375 -109.0625 38.046875 -114.21875 L 55.9375 -114.21875 L 55.9375 -18.671875 L 80.546875 -18.671875 L 80.546875 0 Z M 6.015625 0 "/></g></g></g><g fill="#ffde59" fill-opacity="1"><g transform="translate(152.463327, 286.499978)"><g><path d="M 3.125 22.96875 C 7.707031 20.15625 11.804688 16.753906 15.421875 12.765625 C 19.046875 8.785156 20.988281 4.738281 21.25 0.625 C 17.1875 0.625 13.992188 -0.582031 11.671875 -3 C 9.359375 -5.425781 8.203125 -8.566406 8.203125 -12.421875 C 8.203125 -14.867188 8.757812 -17.09375 9.875 -19.09375 C 11 -21.101562 12.601562 -22.679688 14.6875 -23.828125 C 16.769531 -24.972656 19.164062 -25.546875 21.875 -25.546875 C 26.25 -25.546875 29.738281 -24.113281 32.34375 -21.25 C 34.945312 -18.382812 36.25 -14.269531 36.25 -8.90625 C 36.25 0.414062 33.890625 8.515625 29.171875 15.390625 C 24.460938 22.265625 18.175781 28.070312 10.3125 32.8125 Z M 3.125 22.96875 "/></g></g></g><g fill="#ffde59" fill-opacity="1"><g transform="translate(196.915369, 286.499978)"><g><path d="M 55.78125 1.640625 C 46.457031 1.640625 38.34375 -0.425781 31.4375 -4.5625 C 24.539062 -8.707031 19.175781 -15.15625 15.34375 -23.90625 C 11.519531 -32.65625 9.609375 -43.722656 9.609375 -57.109375 C 9.609375 -70.492188 11.519531 -81.5625 15.34375 -90.3125 C 19.175781 -99.0625 24.539062 -105.503906 31.4375 -109.640625 C 38.34375 -113.785156 46.457031 -115.859375 55.78125 -115.859375 C 65.15625 -115.859375 73.289062 -113.785156 80.1875 -109.640625 C 87.09375 -105.503906 92.457031 -99.0625 96.28125 -90.3125 C 100.113281 -81.5625 102.03125 -70.492188 102.03125 -57.109375 C 102.03125 -43.722656 100.113281 -32.65625 96.28125 -23.90625 C 92.457031 -15.15625 87.09375 -8.707031 80.1875 -4.5625 C 73.289062 -0.425781 65.15625 1.640625 55.78125 1.640625 Z M 55.78125 -17.5 C 60.882812 -17.5 65.15625 -18.734375 68.59375 -21.203125 C 72.03125 -23.679688 74.671875 -27.835938 76.515625 -33.671875 C 78.367188 -39.503906 79.296875 -47.316406 79.296875 -57.109375 C 79.296875 -66.898438 78.367188 -74.710938 76.515625 -80.546875 C 74.671875 -86.378906 72.03125 -90.53125 68.59375 -93 C 65.15625 -95.476562 60.882812 -96.71875 55.78125 -96.71875 C 50.675781 -96.71875 46.40625 -95.476562 42.96875 -93 C 39.53125 -90.53125 36.882812 -86.378906 35.03125 -80.546875 C 33.1875 -74.710938 32.265625 -66.898438 32.265625 -57.109375 C 32.265625 -47.316406 33.1875 -39.503906 35.03125 -33.671875 C 36.882812 -27.835938 39.53125 -23.679688 42.96875 -21.203125 C 46.40625 -18.734375 50.675781 -17.5 55.78125 -17.5 Z M 55.78125 -17.5 "/></g></g></g><g fill="#ffde59" fill-opacity="1"><g transform="translate(308.553265, 286.499978)"><g><path d="M 55.78125 1.640625 C 46.457031 1.640625 38.34375 -0.425781 31.4375 -4.5625 C 24.539062 -8.707031 19.175781 -15.15625 15.34375 -23.90625 C 11.519531 -32.65625 9.609375 -43.722656 9.609375 -57.109375 C 9.609375 -70.492188 11.519531 -81.5625 15.34375 -90.3125 C 19.175781 -99.0625 24.539062 -105.503906 31.4375 -109.640625 C 38.34375 -113.785156 46.457031 -115.859375 55.78125 -115.859375 C 65.15625 -115.859375 73.289062 -113.785156 80.1875 -109.640625 C 87.09375 -105.503906 92.457031 -99.0625 96.28125 -90.3125 C 100.113281 -81.5625 102.03125 -70.492188 102.03125 -57.109375 C 102.03125 -43.722656 100.113281 -32.65625 96.28125 -23.90625 C 92.457031 -15.15625 87.09375 -8.707031 80.1875 -4.5625 C 73.289062 -0.425781 65.15625 1.640625 55.78125 1.640625 Z M 55.78125 -17.5 C 60.882812 -17.5 65.15625 -18.734375 68.59375 -21.203125 C 72.03125 -23.679688 74.671875 -27.835938 76.515625 -33.671875 C 78.367188 -39.503906 79.296875 -47.316406 79.296875 -57.109375 C 79.296875 -66.898438 78.367188 -74.710938 76.515625 -80.546875 C 74.671875 -86.378906 72.03125 -90.53125 68.59375 -93 C 65.15625 -95.476562 60.882812 -96.71875 55.78125 -96.71875 C 50.675781 -96.71875 46.40625 -95.476562 42.96875 -93 C 39.53125 -90.53125 36.882812 -86.378906 35.03125 -80.546875 C 33.1875 -74.710938 32.265625 -66.898438 32.265625 -57.109375 C 32.265625 -47.316406 33.1875 -39.503906 35.03125 -33.671875 C 36.882812 -27.835938 39.53125 -23.679688 42.96875 -21.203125 C 46.40625 -18.734375 50.675781 -17.5 55.78125 -17.5 Z M 55.78125 -17.5 "/></g></g></g><g fill="#ffde59" fill-opacity="1"><g transform="translate(420.191173, 286.499978)"><g><path d="M 55.78125 1.640625 C 46.457031 1.640625 38.34375 -0.425781 31.4375 -4.5625 C 24.539062 -8.707031 19.175781 -15.15625 15.34375 -23.90625 C 11.519531 -32.65625 9.609375 -43.722656 9.609375 -57.109375 C 9.609375 -70.492188 11.519531 -81.5625 15.34375 -90.3125 C 19.175781 -99.0625 24.539062 -105.503906 31.4375 -109.640625 C 38.34375 -113.785156 46.457031 -115.859375 55.78125 -115.859375 C 65.15625 -115.859375 73.289062 -113.785156 80.1875 -109.640625 C 87.09375 -105.503906 92.457031 -99.0625 96.28125 -90.3125 C 100.113281 -81.5625 102.03125 -70.492188 102.03125 -57.109375 C 102.03125 -43.722656 100.113281 -32.65625 96.28125 -23.90625 C 92.457031 -15.15625 87.09375 -8.707031 80.1875 -4.5625 C 73.289062 -0.425781 65.15625 1.640625 55.78125 1.640625 Z M 55.78125 -17.5 C 60.882812 -17.5 65.15625 -18.734375 68.59375 -21.203125 C 72.03125 -23.679688 74.671875 -27.835938 76.515625 -33.671875 C 78.367188 -39.503906 79.296875 -47.316406 79.296875 -57.109375 C 79.296875 -66.898438 78.367188 -74.710938 76.515625 -80.546875 C 74.671875 -86.378906 72.03125 -90.53125 68.59375 -93 C 65.15625 -95.476562 60.882812 -96.71875 55.78125 -96.71875 C 50.675781 -96.71875 46.40625 -95.476562 42.96875 -93 C 39.53125 -90.53125 36.882812 -86.378906 35.03125 -80.546875 C 33.1875 -74.710938 32.265625 -66.898438 32.265625 -57.109375 C 32.265625 -47.316406 33.1875 -39.503906 35.03125 -33.671875 C 36.882812 -27.835938 39.53125 -23.679688 42.96875 -21.203125 C 46.40625 -18.734375 50.675781 -17.5 55.78125 -17.5 Z M 55.78125 -17.5 "/></g></g></g></svg>