<svg xmlns="http://www.w3.org/2000/svg" xmlns:xlink="http://www.w3.org/1999/xlink" width="800" zoomAndPan="magnify" viewBox="0 0 600 449.999984" height="600" preserveAspectRatio="xMidYMid meet" version="1.0"><defs><g/></defs><g fill="#ff66c4" fill-opacity="1"><g transform="translate(37.969294, 189.749985)"><g><path d="M 8.703125 0 L 8.703125 -60.328125 L 23.25 -60.328125 L 23.25 -52.234375 L 24.390625 -52.015625 C 26.359375 -55.253906 28.664062 -57.640625 31.3125 -59.171875 C 33.957031 -60.703125 37.335938 -61.46875 41.453125 -61.46875 C 46.015625 -61.46875 49.679688 -60.566406 52.453125 -58.765625 C 55.222656 -56.960938 57.242188 -54.328125 58.515625 -50.859375 L 59.671875 -50.859375 C 61.523438 -54.472656 63.921875 -57.144531 66.859375 -58.875 C 69.796875 -60.601562 73.453125 -61.46875 77.828125 -61.46875 C 90.328125 -61.46875 96.578125 -54.503906 96.578125 -40.578125 L 96.578125 0 L 81.4375 0 L 81.4375 -38.671875 C 81.4375 -42.203125 80.742188 -44.75 79.359375 -46.3125 C 77.972656 -47.882812 75.75 -48.671875 72.6875 -48.671875 C 64.375 -48.671875 60.21875 -43.113281 60.21875 -32 L 60.21875 0 L 45.0625 0 L 45.0625 -38.671875 C 45.0625 -42.203125 44.359375 -44.75 42.953125 -46.3125 C 41.554688 -47.882812 39.328125 -48.671875 36.265625 -48.671875 C 32.359375 -48.671875 29.3125 -47.367188 27.125 -44.765625 C 24.9375 -42.160156 23.84375 -38.015625 23.84375 -32.328125 L 23.84375 0 Z M 8.703125 0 "/></g></g></g><g fill="#ff66c4" fill-opacity="1"><g transform="translate(142.309397, 189.749985)"><g><path d="M 59.609375 -26.75 L 20.84375 -26.75 C 21.28125 -21.5 22.773438 -17.675781 25.328125 -15.28125 C 27.878906 -12.894531 31.359375 -11.703125 35.765625 -11.703125 C 39.234375 -11.703125 42.039062 -12.347656 44.1875 -13.640625 C 46.34375 -14.941406 48.078125 -16.90625 49.390625 -19.53125 L 50.53125 -19.53125 L 60.59375 -13.078125 C 58.625 -8.847656 55.648438 -5.414062 51.671875 -2.78125 C 47.703125 -0.15625 42.398438 1.15625 35.765625 1.15625 C 29.535156 1.15625 24.148438 -0.03125 19.609375 -2.40625 C 15.066406 -4.78125 11.566406 -8.304688 9.109375 -12.984375 C 6.648438 -17.671875 5.421875 -23.390625 5.421875 -30.140625 C 5.421875 -36.992188 6.710938 -42.769531 9.296875 -47.46875 C 11.890625 -52.175781 15.390625 -55.6875 19.796875 -58 C 24.210938 -60.3125 29.171875 -61.46875 34.671875 -61.46875 C 43.203125 -61.46875 49.738281 -59.207031 54.28125 -54.6875 C 58.820312 -50.164062 61.09375 -43.53125 61.09375 -34.78125 C 61.09375 -31.613281 60.984375 -29.15625 60.765625 -27.40625 Z M 46.59375 -36.53125 C 46.445312 -41.125 45.378906 -44.46875 43.390625 -46.5625 C 41.410156 -48.664062 38.503906 -49.71875 34.671875 -49.71875 C 27.015625 -49.71875 22.515625 -45.320312 21.171875 -36.53125 Z M 46.59375 -36.53125 "/></g></g></g><g fill="#ff66c4" fill-opacity="1"><g transform="translate(207.877424, 189.749985)"><g><path d="M 42.171875 1.15625 C 34.472656 1.15625 28.75 -1.726562 25 -7.5 L 23.84375 -7.28125 L 23.84375 0 L 8.703125 0 L 8.703125 -84.546875 L 23.84375 -84.546875 L 23.84375 -53.21875 L 25 -53 C 27.070312 -55.875 29.519531 -58.003906 32.34375 -59.390625 C 35.175781 -60.773438 38.5625 -61.46875 42.5 -61.46875 C 47.382812 -61.46875 51.648438 -60.316406 55.296875 -58.015625 C 58.941406 -55.722656 61.785156 -52.234375 63.828125 -47.546875 C 65.867188 -42.867188 66.890625 -37.066406 66.890625 -30.140625 C 66.890625 -23.285156 65.832031 -17.515625 63.71875 -12.828125 C 61.601562 -8.140625 58.6875 -4.632812 54.96875 -2.3125 C 51.25 0 46.984375 1.15625 42.171875 1.15625 Z M 37.578125 -11.703125 C 42.023438 -11.703125 45.414062 -13.1875 47.75 -16.15625 C 50.082031 -19.132812 51.25 -23.796875 51.25 -30.140625 C 51.25 -36.515625 50.082031 -41.1875 47.75 -44.15625 C 45.414062 -47.132812 42.023438 -48.625 37.578125 -48.625 C 33.304688 -48.625 29.921875 -47.09375 27.421875 -44.03125 C 24.929688 -40.96875 23.6875 -36.335938 23.6875 -30.140625 C 23.6875 -23.941406 24.929688 -19.316406 27.421875 -16.265625 C 29.921875 -13.222656 33.304688 -11.703125 37.578125 -11.703125 Z M 37.578125 -11.703125 "/></g></g></g><g fill="#ff66c4" fill-opacity="1"><g transform="translate(280.117103, 189.749985)"><g><path d="M 16.25 -67.546875 C 13.507812 -67.546875 11.28125 -68.375 9.5625 -70.03125 C 7.851562 -71.6875 7 -73.828125 7 -76.453125 C 7 -79.046875 7.851562 -81.171875 9.5625 -82.828125 C 11.28125 -84.484375 13.507812 -85.3125 16.25 -85.3125 C 18.070312 -85.3125 19.691406 -84.925781 21.109375 -84.15625 C 22.535156 -83.394531 23.640625 -82.347656 24.421875 -81.015625 C 25.203125 -79.691406 25.59375 -78.171875 25.59375 -76.453125 C 25.59375 -74.742188 25.203125 -73.210938 24.421875 -71.859375 C 23.640625 -70.515625 22.535156 -69.457031 21.109375 -68.6875 C 19.691406 -67.925781 18.070312 -67.546875 16.25 -67.546875 Z M 8.703125 0 L 8.703125 -60.328125 L 23.84375 -60.328125 L 23.84375 0 Z M 8.703125 0 "/></g></g></g><g fill="#ff66c4" fill-opacity="1"><g transform="translate(312.600331, 189.749985)"><g><path d="M 42.171875 1.15625 C 34.472656 1.15625 28.75 -1.726562 25 -7.5 L 23.84375 -7.28125 L 23.84375 0 L 8.703125 0 L 8.703125 -84.546875 L 23.84375 -84.546875 L 23.84375 -53.21875 L 25 -53 C 27.070312 -55.875 29.519531 -58.003906 32.34375 -59.390625 C 35.175781 -60.773438 38.5625 -61.46875 42.5 -61.46875 C 47.382812 -61.46875 51.648438 -60.316406 55.296875 -58.015625 C 58.941406 -55.722656 61.785156 -52.234375 63.828125 -47.546875 C 65.867188 -42.867188 66.890625 -37.066406 66.890625 -30.140625 C 66.890625 -23.285156 65.832031 -17.515625 63.71875 -12.828125 C 61.601562 -8.140625 58.6875 -4.632812 54.96875 -2.3125 C 51.25 0 46.984375 1.15625 42.171875 1.15625 Z M 37.578125 -11.703125 C 42.023438 -11.703125 45.414062 -13.1875 47.75 -16.15625 C 50.082031 -19.132812 51.25 -23.796875 51.25 -30.140625 C 51.25 -36.515625 50.082031 -41.1875 47.75 -44.15625 C 45.414062 -47.132812 42.023438 -48.625 37.578125 -48.625 C 33.304688 -48.625 29.921875 -47.09375 27.421875 -44.03125 C 24.929688 -40.96875 23.6875 -36.335938 23.6875 -30.140625 C 23.6875 -23.941406 24.929688 -19.316406 27.421875 -16.265625 C 29.921875 -13.222656 33.304688 -11.703125 37.578125 -11.703125 Z M 37.578125 -11.703125 "/></g></g></g><g fill="#ff66c4" fill-opacity="1"><g transform="translate(384.84001, 189.749985)"><g><path d="M 13.34375 25.59375 C 10.757812 25.59375 8.414062 25.390625 6.3125 24.984375 C 4.21875 24.585938 2.515625 24.0625 1.203125 23.40625 L 3.609375 11.15625 L 4.59375 10.828125 C 5.507812 11.304688 6.640625 11.691406 7.984375 11.984375 C 9.335938 12.273438 10.722656 12.421875 12.140625 12.421875 C 14.585938 12.421875 16.617188 12.097656 18.234375 11.453125 C 19.859375 10.816406 21.234375 9.757812 22.359375 8.28125 C 23.492188 6.8125 24.5 4.765625 25.375 2.140625 L 1.3125 -60.328125 L 17.171875 -60.328125 L 32.15625 -18.375 L 33.46875 -18.375 L 48.078125 -60.328125 L 63.5 -60.328125 L 39.265625 3.78125 C 37.335938 8.957031 35.210938 13.117188 32.890625 16.265625 C 30.578125 19.421875 27.84375 21.765625 24.6875 23.296875 C 21.539062 24.828125 17.757812 25.59375 13.34375 25.59375 Z M 13.34375 25.59375 "/></g></g></g><g fill="#ff66c4" fill-opacity="1"><g transform="translate(449.587747, 189.749985)"><g><path d="M 41.625 -14.390625 L 45.5625 -3.171875 C 43.914062 -1.828125 41.851562 -0.769531 39.375 0 C 36.894531 0.769531 34.085938 1.15625 30.953125 1.15625 C 24.429688 1.15625 19.472656 -0.617188 16.078125 -4.171875 C 12.691406 -7.734375 11 -12.90625 11 -19.6875 L 11 -48.34375 L 1.8125 -48.34375 L 1.8125 -60.375 L 11 -60.375 L 11 -72.140625 L 26.140625 -74.59375 L 26.140625 -60.375 L 43.265625 -60.375 L 43.265625 -48.34375 L 26.140625 -48.34375 L 26.140625 -20.78125 C 26.140625 -17.789062 26.757812 -15.613281 28 -14.25 C 29.238281 -12.882812 31.046875 -12.203125 33.421875 -12.203125 C 36.117188 -12.203125 38.46875 -12.929688 40.46875 -14.390625 Z M 41.625 -14.390625 "/></g></g></g><g fill="#ff66c4" fill-opacity="1"><g transform="translate(496.453313, 189.749985)"><g><path d="M 59.609375 -26.75 L 20.84375 -26.75 C 21.28125 -21.5 22.773438 -17.675781 25.328125 -15.28125 C 27.878906 -12.894531 31.359375 -11.703125 35.765625 -11.703125 C 39.234375 -11.703125 42.039062 -12.347656 44.1875 -13.640625 C 46.34375 -14.941406 48.078125 -16.90625 49.390625 -19.53125 L 50.53125 -19.53125 L 60.59375 -13.078125 C 58.625 -8.847656 55.648438 -5.414062 51.671875 -2.78125 C 47.703125 -0.15625 42.398438 1.15625 35.765625 1.15625 C 29.535156 1.15625 24.148438 -0.03125 19.609375 -2.40625 C 15.066406 -4.78125 11.566406 -8.304688 9.109375 -12.984375 C 6.648438 -17.671875 5.421875 -23.390625 5.421875 -30.140625 C 5.421875 -36.992188 6.710938 -42.769531 9.296875 -47.46875 C 11.890625 -52.175781 15.390625 -55.6875 19.796875 -58 C 24.210938 -60.3125 29.171875 -61.46875 34.671875 -61.46875 C 43.203125 -61.46875 49.738281 -59.207031 54.28125 -54.6875 C 58.820312 -50.164062 61.09375 -43.53125 61.09375 -34.78125 C 61.09375 -31.613281 60.984375 -29.15625 60.765625 -27.40625 Z M 46.59375 -36.53125 C 46.445312 -41.125 45.378906 -44.46875 43.390625 -46.5625 C 41.410156 -48.664062 38.503906 -49.71875 34.671875 -49.71875 C 27.015625 -49.71875 22.515625 -45.320312 21.171875 -36.53125 Z M 46.59375 -36.53125 "/></g></g></g><g fill="#c1ff72" fill-opacity="1"><g transform="translate(193.05522, 346.499973)"><g><path d="M 24.890625 0 L 10.390625 0 L 10.390625 -79.953125 L 31.0625 -79.953125 L 51.296875 -21.171875 L 52.453125 -21.171875 L 72.578125 -79.953125 L 92.75 -79.953125 L 92.75 0 L 77.765625 0 L 77.765625 -52.828125 L 76.40625 -53.046875 L 57.921875 0 L 44.734375 0 L 26.25 -53.046875 L 24.890625 -52.828125 Z M 24.890625 0 "/></g></g></g><g fill="#c1ff72" fill-opacity="1"><g transform="translate(296.246931, 346.499973)"><g><path d="M 16.25 -67.546875 C 13.507812 -67.546875 11.28125 -68.375 9.5625 -70.03125 C 7.851562 -71.6875 7 -73.828125 7 -76.453125 C 7 -79.046875 7.851562 -81.171875 9.5625 -82.828125 C 11.28125 -84.484375 13.507812 -85.3125 16.25 -85.3125 C 18.070312 -85.3125 19.691406 -84.925781 21.109375 -84.15625 C 22.535156 -83.394531 23.640625 -82.347656 24.421875 -81.015625 C 25.203125 -79.691406 25.59375 -78.171875 25.59375 -76.453125 C 25.59375 -74.742188 25.203125 -73.210938 24.421875 -71.859375 C 23.640625 -70.515625 22.535156 -69.457031 21.109375 -68.6875 C 19.691406 -67.925781 18.070312 -67.546875 16.25 -67.546875 Z M 8.703125 0 L 8.703125 -60.328125 L 23.84375 -60.328125 L 23.84375 0 Z M 8.703125 0 "/></g></g></g><g fill="#c1ff72" fill-opacity="1"><g transform="translate(328.73017, 346.499973)"><g><path d="M 10.390625 0 L 10.390625 -79.953125 L 44.515625 -79.953125 C 49.441406 -79.953125 53.609375 -79.175781 57.015625 -77.625 C 60.421875 -76.082031 63 -73.878906 64.75 -71.015625 C 66.5 -68.148438 67.375 -64.769531 67.375 -60.875 C 67.375 -57.332031 66.515625 -54.210938 64.796875 -51.515625 C 63.085938 -48.816406 60.628906 -46.648438 57.421875 -45.015625 L 57.421875 -43.859375 C 62.453125 -42.546875 66.332031 -40.15625 69.0625 -36.6875 C 71.800781 -33.226562 73.171875 -28.984375 73.171875 -23.953125 C 73.171875 -16.296875 70.863281 -10.390625 66.25 -6.234375 C 61.644531 -2.078125 54.800781 0 45.71875 0 Z M 41.234375 -48.078125 C 48.597656 -48.078125 52.28125 -51.394531 52.28125 -58.03125 C 52.28125 -61.414062 51.367188 -63.9375 49.546875 -65.59375 C 47.722656 -67.257812 44.953125 -68.09375 41.234375 -68.09375 L 26.203125 -68.09375 L 26.203125 -48.078125 Z M 44.140625 -12.53125 C 52.847656 -12.53125 57.203125 -16.484375 57.203125 -24.390625 C 57.203125 -32.335938 52.847656 -36.3125 44.140625 -36.3125 L 26.203125 -36.3125 L 26.203125 -12.53125 Z M 44.140625 -12.53125 "/></g></g></g></svg>