<svg xmlns="http://www.w3.org/2000/svg" xmlns:xlink="http://www.w3.org/1999/xlink" width="800" zoomAndPan="magnify" viewBox="0 0 600 449.999984" height="600" preserveAspectRatio="xMidYMid meet" version="1.0"><defs><g/></defs><g fill="#ff66c4" fill-opacity="1"><g transform="translate(63.621636, 189.749985)"><g><path d="M 41.625 -14.390625 L 45.5625 -3.171875 C 43.914062 -1.828125 41.851562 -0.769531 39.375 0 C 36.894531 0.769531 34.085938 1.15625 30.953125 1.15625 C 24.429688 1.15625 19.472656 -0.617188 16.078125 -4.171875 C 12.691406 -7.734375 11 -12.90625 11 -19.6875 L 11 -48.34375 L 1.8125 -48.34375 L 1.8125 -60.375 L 11 -60.375 L 11 -72.140625 L 26.140625 -74.59375 L 26.140625 -60.375 L 43.265625 -60.375 L 43.265625 -48.34375 L 26.140625 -48.34375 L 26.140625 -20.78125 C 26.140625 -17.789062 26.757812 -15.613281 28 -14.25 C 29.238281 -12.882812 31.046875 -12.203125 33.421875 -12.203125 C 36.117188 -12.203125 38.46875 -12.929688 40.46875 -14.390625 Z M 41.625 -14.390625 "/></g></g></g><g fill="#ff66c4" fill-opacity="1"><g transform="translate(110.487191, 189.749985)"><g><path d="M 59.609375 -26.75 L 20.84375 -26.75 C 21.28125 -21.5 22.773438 -17.675781 25.328125 -15.28125 C 27.878906 -12.894531 31.359375 -11.703125 35.765625 -11.703125 C 39.234375 -11.703125 42.039062 -12.347656 44.1875 -13.640625 C 46.34375 -14.941406 48.078125 -16.90625 49.390625 -19.53125 L 50.53125 -19.53125 L 60.59375 -13.078125 C 58.625 -8.847656 55.648438 -5.414062 51.671875 -2.78125 C 47.703125 -0.15625 42.398438 1.15625 35.765625 1.15625 C 29.535156 1.15625 24.148438 -0.03125 19.609375 -2.40625 C 15.066406 -4.78125 11.566406 -8.304688 9.109375 -12.984375 C 6.648438 -17.671875 5.421875 -23.390625 5.421875 -30.140625 C 5.421875 -36.992188 6.710938 -42.769531 9.296875 -47.46875 C 11.890625 -52.175781 15.390625 -55.6875 19.796875 -58 C 24.210938 -60.3125 29.171875 -61.46875 34.671875 -61.46875 C 43.203125 -61.46875 49.738281 -59.207031 54.28125 -54.6875 C 58.820312 -50.164062 61.09375 -43.53125 61.09375 -34.78125 C 61.09375 -31.613281 60.984375 -29.15625 60.765625 -27.40625 Z M 46.59375 -36.53125 C 46.445312 -41.125 45.378906 -44.46875 43.390625 -46.5625 C 41.410156 -48.664062 38.503906 -49.71875 34.671875 -49.71875 C 27.015625 -49.71875 22.515625 -45.320312 21.171875 -36.53125 Z M 46.59375 -36.53125 "/></g></g></g><g fill="#ff66c4" fill-opacity="1"><g transform="translate(176.055217, 189.749985)"><g><path d="M 8.703125 0 L 8.703125 -60.328125 L 23.40625 -60.328125 L 23.40625 -51.359375 L 24.5625 -51.140625 C 26.019531 -54.492188 27.929688 -56.953125 30.296875 -58.515625 C 32.671875 -60.085938 35.550781 -60.875 38.9375 -60.875 C 42.363281 -60.875 44.972656 -60.289062 46.765625 -59.125 L 44.1875 -46.046875 L 43.046875 -45.828125 C 42.054688 -46.234375 41.101562 -46.523438 40.1875 -46.703125 C 39.28125 -46.890625 38.171875 -46.984375 36.859375 -46.984375 C 32.628906 -46.984375 29.398438 -45.492188 27.171875 -42.515625 C 24.953125 -39.546875 23.84375 -34.78125 23.84375 -28.21875 L 23.84375 0 Z M 8.703125 0 "/></g></g></g><g fill="#ff66c4" fill-opacity="1"><g transform="translate(223.358256, 189.749985)"><g><path d="M 23.515625 1.15625 C 19.648438 1.15625 16.296875 0.441406 13.453125 -0.984375 C 10.609375 -2.410156 8.421875 -4.5 6.890625 -7.25 C 5.359375 -10 4.59375 -13.304688 4.59375 -17.171875 C 4.59375 -20.742188 5.359375 -23.742188 6.890625 -26.171875 C 8.421875 -28.597656 10.789062 -30.582031 14 -32.125 C 17.207031 -33.675781 21.398438 -34.875 26.578125 -35.71875 C 30.191406 -36.300781 32.9375 -36.9375 34.8125 -37.625 C 36.6875 -38.320312 37.953125 -39.109375 38.609375 -39.984375 C 39.265625 -40.859375 39.59375 -41.96875 39.59375 -43.3125 C 39.59375 -45.25 38.914062 -46.726562 37.5625 -47.75 C 36.21875 -48.769531 33.976562 -49.28125 30.84375 -49.28125 C 27.488281 -49.28125 24.296875 -48.53125 21.265625 -47.03125 C 18.242188 -45.539062 15.625 -43.570312 13.40625 -41.125 L 12.3125 -41.125 L 5.96875 -50.703125 C 9.03125 -54.085938 12.765625 -56.726562 17.171875 -58.625 C 21.585938 -60.519531 26.398438 -61.46875 31.609375 -61.46875 C 39.597656 -61.46875 45.378906 -59.769531 48.953125 -56.375 C 52.523438 -52.988281 54.3125 -48.179688 54.3125 -41.953125 L 54.3125 -15.75 C 54.3125 -13.050781 55.492188 -11.703125 57.859375 -11.703125 C 58.773438 -11.703125 59.671875 -11.867188 60.546875 -12.203125 L 61.3125 -11.984375 L 62.40625 -1.421875 C 61.5625 -0.878906 60.390625 -0.429688 58.890625 -0.078125 C 57.398438 0.265625 55.765625 0.4375 53.984375 0.4375 C 50.367188 0.4375 47.550781 -0.253906 45.53125 -1.640625 C 43.507812 -3.023438 42.0625 -5.195312 41.1875 -8.15625 L 40.03125 -8.265625 C 37.082031 -1.984375 31.578125 1.15625 23.515625 1.15625 Z M 28.328125 -10.171875 C 31.828125 -10.171875 34.625 -11.347656 36.71875 -13.703125 C 38.820312 -16.054688 39.875 -19.328125 39.875 -23.515625 L 39.875 -29.640625 L 38.828125 -29.859375 C 37.921875 -29.128906 36.726562 -28.519531 35.25 -28.03125 C 33.769531 -27.539062 31.644531 -27.054688 28.875 -26.578125 C 25.59375 -26.035156 23.234375 -25.097656 21.796875 -23.765625 C 20.359375 -22.429688 19.640625 -20.546875 19.640625 -18.109375 C 19.640625 -15.515625 20.40625 -13.539062 21.9375 -12.1875 C 23.46875 -10.84375 25.597656 -10.171875 28.328125 -10.171875 Z M 28.328125 -10.171875 "/></g></g></g><g fill="#ff66c4" fill-opacity="1"><g transform="translate(286.957601, 189.749985)"><g><path d="M 42.171875 1.15625 C 34.472656 1.15625 28.75 -1.726562 25 -7.5 L 23.84375 -7.28125 L 23.84375 0 L 8.703125 0 L 8.703125 -84.546875 L 23.84375 -84.546875 L 23.84375 -53.21875 L 25 -53 C 27.070312 -55.875 29.519531 -58.003906 32.34375 -59.390625 C 35.175781 -60.773438 38.5625 -61.46875 42.5 -61.46875 C 47.382812 -61.46875 51.648438 -60.316406 55.296875 -58.015625 C 58.941406 -55.722656 61.785156 -52.234375 63.828125 -47.546875 C 65.867188 -42.867188 66.890625 -37.066406 66.890625 -30.140625 C 66.890625 -23.285156 65.832031 -17.515625 63.71875 -12.828125 C 61.601562 -8.140625 58.6875 -4.632812 54.96875 -2.3125 C 51.25 0 46.984375 1.15625 42.171875 1.15625 Z M 37.578125 -11.703125 C 42.023438 -11.703125 45.414062 -13.1875 47.75 -16.15625 C 50.082031 -19.132812 51.25 -23.796875 51.25 -30.140625 C 51.25 -36.515625 50.082031 -41.1875 47.75 -44.15625 C 45.414062 -47.132812 42.023438 -48.625 37.578125 -48.625 C 33.304688 -48.625 29.921875 -47.09375 27.421875 -44.03125 C 24.929688 -40.96875 23.6875 -36.335938 23.6875 -30.140625 C 23.6875 -23.941406 24.929688 -19.316406 27.421875 -16.265625 C 29.921875 -13.222656 33.304688 -11.703125 37.578125 -11.703125 Z M 37.578125 -11.703125 "/></g></g></g><g fill="#ff66c4" fill-opacity="1"><g transform="translate(359.197281, 189.749985)"><g><path d="M 13.34375 25.59375 C 10.757812 25.59375 8.414062 25.390625 6.3125 24.984375 C 4.21875 24.585938 2.515625 24.0625 1.203125 23.40625 L 3.609375 11.15625 L 4.59375 10.828125 C 5.507812 11.304688 6.640625 11.691406 7.984375 11.984375 C 9.335938 12.273438 10.722656 12.421875 12.140625 12.421875 C 14.585938 12.421875 16.617188 12.097656 18.234375 11.453125 C 19.859375 10.816406 21.234375 9.757812 22.359375 8.28125 C 23.492188 6.8125 24.5 4.765625 25.375 2.140625 L 1.3125 -60.328125 L 17.171875 -60.328125 L 32.15625 -18.375 L 33.46875 -18.375 L 48.078125 -60.328125 L 63.5 -60.328125 L 39.265625 3.78125 C 37.335938 8.957031 35.210938 13.117188 32.890625 16.265625 C 30.578125 19.421875 27.84375 21.765625 24.6875 23.296875 C 21.539062 24.828125 17.757812 25.59375 13.34375 25.59375 Z M 13.34375 25.59375 "/></g></g></g><g fill="#ff66c4" fill-opacity="1"><g transform="translate(423.945017, 189.749985)"><g><path d="M 41.625 -14.390625 L 45.5625 -3.171875 C 43.914062 -1.828125 41.851562 -0.769531 39.375 0 C 36.894531 0.769531 34.085938 1.15625 30.953125 1.15625 C 24.429688 1.15625 19.472656 -0.617188 16.078125 -4.171875 C 12.691406 -7.734375 11 -12.90625 11 -19.6875 L 11 -48.34375 L 1.8125 -48.34375 L 1.8125 -60.375 L 11 -60.375 L 11 -72.140625 L 26.140625 -74.59375 L 26.140625 -60.375 L 43.265625 -60.375 L 43.265625 -48.34375 L 26.140625 -48.34375 L 26.140625 -20.78125 C 26.140625 -17.789062 26.757812 -15.613281 28 -14.25 C 29.238281 -12.882812 31.046875 -12.203125 33.421875 -12.203125 C 36.117188 -12.203125 38.46875 -12.929688 40.46875 -14.390625 Z M 41.625 -14.390625 "/></g></g></g><g fill="#ff66c4" fill-opacity="1"><g transform="translate(470.810584, 189.749985)"><g><path d="M 59.609375 -26.75 L 20.84375 -26.75 C 21.28125 -21.5 22.773438 -17.675781 25.328125 -15.28125 C 27.878906 -12.894531 31.359375 -11.703125 35.765625 -11.703125 C 39.234375 -11.703125 42.039062 -12.347656 44.1875 -13.640625 C 46.34375 -14.941406 48.078125 -16.90625 49.390625 -19.53125 L 50.53125 -19.53125 L 60.59375 -13.078125 C 58.625 -8.847656 55.648438 -5.414062 51.671875 -2.78125 C 47.703125 -0.15625 42.398438 1.15625 35.765625 1.15625 C 29.535156 1.15625 24.148438 -0.03125 19.609375 -2.40625 C 15.066406 -4.78125 11.566406 -8.304688 9.109375 -12.984375 C 6.648438 -17.671875 5.421875 -23.390625 5.421875 -30.140625 C 5.421875 -36.992188 6.710938 -42.769531 9.296875 -47.46875 C 11.890625 -52.175781 15.390625 -55.6875 19.796875 -58 C 24.210938 -60.3125 29.171875 -61.46875 34.671875 -61.46875 C 43.203125 -61.46875 49.738281 -59.207031 54.28125 -54.6875 C 58.820312 -50.164062 61.09375 -43.53125 61.09375 -34.78125 C 61.09375 -31.613281 60.984375 -29.15625 60.765625 -27.40625 Z M 46.59375 -36.53125 C 46.445312 -41.125 45.378906 -44.46875 43.390625 -46.5625 C 41.410156 -48.664062 38.503906 -49.71875 34.671875 -49.71875 C 27.015625 -49.71875 22.515625 -45.320312 21.171875 -36.53125 Z M 46.59375 -36.53125 "/></g></g></g><g fill="#c1ff72" fill-opacity="1"><g transform="translate(227.75444, 346.499973)"><g><path d="M 64.09375 -79.953125 L 64.09375 -66.671875 L 41.015625 -66.671875 L 41.015625 0 L 25.265625 0 L 25.265625 -66.671875 L 2.1875 -66.671875 L 2.1875 -79.953125 Z M 64.09375 -79.953125 "/></g></g></g><g fill="#c1ff72" fill-opacity="1"><g transform="translate(294.033373, 346.499973)"><g><path d="M 10.390625 0 L 10.390625 -79.953125 L 44.515625 -79.953125 C 49.441406 -79.953125 53.609375 -79.175781 57.015625 -77.625 C 60.421875 -76.082031 63 -73.878906 64.75 -71.015625 C 66.5 -68.148438 67.375 -64.769531 67.375 -60.875 C 67.375 -57.332031 66.515625 -54.210938 64.796875 -51.515625 C 63.085938 -48.816406 60.628906 -46.648438 57.421875 -45.015625 L 57.421875 -43.859375 C 62.453125 -42.546875 66.332031 -40.15625 69.0625 -36.6875 C 71.800781 -33.226562 73.171875 -28.984375 73.171875 -23.953125 C 73.171875 -16.296875 70.863281 -10.390625 66.25 -6.234375 C 61.644531 -2.078125 54.800781 0 45.71875 0 Z M 41.234375 -48.078125 C 48.597656 -48.078125 52.28125 -51.394531 52.28125 -58.03125 C 52.28125 -61.414062 51.367188 -63.9375 49.546875 -65.59375 C 47.722656 -67.257812 44.953125 -68.09375 41.234375 -68.09375 L 26.203125 -68.09375 L 26.203125 -48.078125 Z M 44.140625 -12.53125 C 52.847656 -12.53125 57.203125 -16.484375 57.203125 -24.390625 C 57.203125 -32.335938 52.847656 -36.3125 44.140625 -36.3125 L 26.203125 -36.3125 L 26.203125 -12.53125 Z M 44.140625 -12.53125 "/></g></g></g></svg>